<svg id="Layer_1" data-name="Layer 1" xmlns="http://www.w3.org/2000/svg" viewBox="0 0 282.92 259.5"><defs><style>.cls-1{fill:#231f20;}.cls-2,.cls-3{fill:none;stroke:#231f20;stroke-linejoin:round;}.cls-2{stroke-linecap:square;stroke-width:3.59px;}.cls-3{stroke-linecap:round;stroke-width:17.94px;}</style></defs><path class="cls-1" d="M286.06,69.62C277.14,34.6,239.22,49,239.22,49s-26,92.19-45.81,66.29S207.12,48,182.08,30.1,128,29.73,128,29.73c-8.37-2.36-26.5,77.84-32,105.4S65.13,252.37,62,202.06,31.8,170.5,31.8,170.5c-35.37,32-21.25,75.26-21.25,75.26C54.1,302.07,78,270.89,99.32,253.9s7.2-94.8,27.24-131.13,52.67,45.35,68.35,91.08S240,235.39,241.61,227,295,104.65,286.06,69.62ZM132,75.63c-6,0-10.87-6.34-10.87-14.15S126,47.33,132,47.33s10.88,6.33,10.88,14.15S138,75.63,132,75.63Zm34.87,4.08c-6.42,0-11.63-8.16-11.63-18.23s5.21-18.24,11.63-18.24,11.63,8.17,11.63,18.24S173.27,79.71,166.85,79.71Z" transform="translate(-5.97 -20.25)"/><path class="cls-2" d="M286.06,69.62C277.14,34.6,239.22,49,239.22,49s-26,92.19-45.81,66.29S207.12,48,182.08,30.1,128,29.73,128,29.73c-8.37-2.36-26.5,77.84-32,105.4S65.13,252.37,62,202.06,31.8,170.5,31.8,170.5c-35.37,32-21.25,75.26-21.25,75.26C54.1,302.07,78,270.89,99.32,253.9s7.2-94.8,27.24-131.13,52.67,45.35,68.35,91.08S240,235.39,241.61,227,295,104.65,286.06,69.62ZM132,75.63c-6,0-10.87-6.34-10.87-14.15S126,47.33,132,47.33s10.88,6.33,10.88,14.15S138,75.63,132,75.63Zm34.87,4.08c-6.42,0-11.63-8.16-11.63-18.23s5.21-18.24,11.63-18.24,11.63,8.17,11.63,18.24S173.27,79.71,166.85,79.71Z" transform="translate(-5.97 -20.25)"/><path class="cls-3" d="M99.33,215.22s62-60.92,96.2-39.54" transform="translate(-5.97 -20.25)"/></svg>